<svg width="256" height="256" viewBox="0 0 256 256" fill="none" xmlns="http://www.w3.org/2000/svg">
<g opacity="0.2">
<path d="M216.739 127.988C216.739 123.563 218.426 119.876 220.638 119.239C214.883 120.011 209.027 119.442 203.528 117.576C202.398 109.18 199.863 101.034 196.029 93.4794C193.949 89.374 191.493 85.4702 188.692 81.8184C191.323 76.6703 195.109 72.2002 199.753 68.7576C197.704 69.8075 193.929 68.4076 190.804 65.283C187.68 62.1584 186.318 58.4964 187.292 56.4217C183.767 60.9832 179.255 64.6877 174.094 67.2578C167.333 62.1228 159.758 58.1598 151.684 55.5343C147.292 54.0699 142.773 53.0156 138.186 52.3847C136.399 46.8674 135.907 41.0125 136.749 35.2744C136.149 37.5241 132.437 39.2613 128 39.2613C123.563 39.2613 119.864 37.5616 119.251 35.3368C120.023 41.1004 119.454 46.9644 117.589 52.4722C104.555 54.2547 92.207 59.3927 81.7559 67.3828C76.5926 64.7313 72.1103 60.9248 68.6575 56.2592C69.7824 58.2964 68.3826 62.1084 65.233 65.258C62.0834 68.4076 58.4338 69.7574 56.3591 68.7826C60.9369 72.2964 64.6446 76.8167 67.1952 81.9934C62.0834 88.7402 58.1338 96.2931 55.5092 104.341C54.0666 108.735 53.0372 113.254 52.4346 117.839C46.9221 119.609 41.0764 120.088 35.3493 119.239C37.5615 119.901 39.2613 123.576 39.2613 127.988C39.2613 132.399 37.5615 136.136 35.3368 136.736C41.1013 135.968 46.9654 136.541 52.4721 138.411C54.268 151.442 59.4046 163.786 67.3827 174.244C64.7503 179.388 60.9648 183.853 56.3216 187.292C58.3713 186.243 62.1459 187.642 65.2705 190.767C68.3951 193.892 69.7574 197.554 68.7825 199.628C72.3091 195.063 76.8263 191.358 81.9933 188.792C88.7403 193.914 96.2983 197.868 104.353 200.491C108.741 201.949 113.256 202.995 117.839 203.615C119.615 209.139 120.094 214.999 119.239 220.738C119.864 218.501 123.551 216.789 127.987 216.789C132.424 216.789 136.049 218.463 136.736 220.651C135.975 214.907 136.548 209.064 138.411 203.578C146.803 202.448 154.945 199.913 162.496 196.079C166.636 193.964 170.57 191.466 174.244 188.617C179.384 191.255 183.849 195.04 187.292 199.678C186.243 197.629 187.642 193.867 190.767 190.742C193.892 187.617 197.666 186.218 199.716 187.267C195.105 183.748 191.37 179.209 188.805 174.007C196.747 163.542 201.837 151.195 203.578 138.174C209.115 136.396 214.988 135.921 220.738 136.786C218.476 136.124 216.739 132.474 216.739 127.988ZM73.8194 138.786C73.5594 138.861 73.2901 138.899 73.0195 138.899C69.7824 138.974 67.0577 135.049 66.9452 130.15C66.8328 125.25 69.4449 121.201 72.632 121.126C72.9477 121.115 73.2633 121.148 73.5694 121.226C76.3815 121.851 78.5688 125.463 78.6813 129.875C78.7937 134.287 76.6565 138.111 73.8194 138.786ZM84.4805 94.7168C84.2674 94.5668 84.0706 94.3951 83.8931 94.2043C81.6934 91.8171 82.8307 87.1802 86.3928 83.8556C89.9548 80.5311 94.7167 79.7562 96.9164 82.1434C97.1522 82.3922 97.3501 82.6744 97.5039 82.9808C98.8537 85.4804 97.5913 89.5174 94.3668 92.492C91.1422 95.4667 86.8552 96.429 84.4805 94.7168ZM112.427 181.593C112.374 181.819 112.294 182.037 112.189 182.243C110.777 185.168 106.04 185.805 101.616 183.668C97.1914 181.531 94.7542 177.419 96.1665 174.507C96.3117 174.211 96.4921 173.934 96.704 173.682C98.5412 171.482 102.753 171.182 106.703 173.082C110.652 174.982 113.189 178.744 112.427 181.593ZM128.675 139.249C126.45 139.249 124.275 138.589 122.426 137.353C120.576 136.117 119.134 134.36 118.283 132.305C117.431 130.249 117.208 127.988 117.642 125.806C118.076 123.624 119.148 121.619 120.721 120.046C122.294 118.473 124.298 117.402 126.48 116.968C128.662 116.534 130.924 116.756 132.98 117.608C135.035 118.459 136.792 119.901 138.028 121.751C139.264 123.6 139.923 125.775 139.923 128C139.923 129.481 139.631 130.948 139.062 132.316C138.494 133.684 137.661 134.927 136.611 135.972C135.561 137.017 134.315 137.844 132.945 138.407C131.574 138.969 130.106 139.255 128.625 139.249H128.675ZM152.347 78.2814C152.259 78.5856 152.129 78.876 151.959 79.1438C150.497 81.6434 146.373 82.6058 142.148 81.3185C137.924 80.0311 134.874 76.794 135.199 73.8194C135.216 73.5773 135.262 73.338 135.337 73.107C136.274 69.9949 140.848 68.6326 145.548 70.0449C150.247 71.4572 153.234 75.1693 152.297 78.2814H152.347ZM165.158 177.169C161.246 180.143 156.484 180.456 154.522 177.869C154.315 177.599 154.143 177.305 154.009 176.994C152.947 174.357 154.572 170.495 158.059 167.845C161.546 165.195 165.97 164.62 168.17 166.595C168.354 166.744 168.518 166.916 168.657 167.108C170.607 169.695 169.02 174.194 165.108 177.169H165.158ZM183.905 127.413C183.59 127.456 183.271 127.456 182.955 127.413C180.093 127.213 177.344 123.988 176.569 119.651C175.794 115.314 177.294 111.152 180.018 110.077C180.247 109.98 180.486 109.909 180.731 109.865C183.918 109.29 187.217 112.739 188.092 117.576C188.967 122.413 187.092 126.838 183.893 127.375L183.905 127.413Z" stroke="white" stroke-width="3" stroke-miterlimit="10" stroke-linecap="round" stroke-linejoin="round"/>
<path d="M78.6687 129.875C78.7686 134.349 76.6564 138.111 73.8193 138.786L73.0194 138.899C69.7823 138.974 67.0576 135.049 66.9452 130.15C66.8327 125.25 69.4448 121.201 72.6319 121.126C72.9476 121.115 73.2632 121.148 73.5693 121.226V121.226C76.369 121.851 78.5812 125.463 78.6687 129.875Z" stroke="white" stroke-width="3" stroke-miterlimit="10"/>
<path d="M94.4043 92.4795C91.0922 95.5416 86.9052 96.429 84.4805 94.7167L83.8931 94.2043C81.6934 91.8171 82.8307 87.1802 86.3928 83.8556C89.9548 80.531 94.7167 79.7561 96.9164 82.1433C97.1522 82.3922 97.3501 82.6743 97.5039 82.9807C98.8912 85.4929 97.6288 89.5049 94.4043 92.4795Z" stroke="white" stroke-width="3" stroke-miterlimit="10"/>
<path d="M112.427 181.593C112.427 181.593 112.352 181.806 112.314 181.906C112.277 182.006 112.227 182.143 112.189 182.268C110.777 185.193 106.04 185.83 101.616 183.693C97.1913 181.556 94.7541 177.444 96.1665 174.532C96.3539 174.257 96.5414 173.982 96.7039 173.707C98.5412 171.507 102.753 171.207 106.703 173.107C110.652 175.006 113.189 178.743 112.427 181.593Z" stroke="white" stroke-width="3" stroke-miterlimit="10"/>
<path d="M128.625 139.249C134.837 139.249 139.873 134.212 139.873 128C139.873 121.788 134.837 116.751 128.625 116.751C122.412 116.751 117.376 121.788 117.376 128C117.376 134.212 122.412 139.249 128.625 139.249Z" stroke="white" stroke-width="3" stroke-miterlimit="10"/>
<path d="M152.297 78.2813C152.209 78.5856 152.079 78.8759 151.91 79.1437V79.1437C150.447 81.6434 146.323 82.6057 142.098 81.3184C137.874 80.0311 134.824 76.794 135.149 73.8194C135.149 73.5944 135.249 73.3569 135.287 73.107C136.224 69.9949 140.798 68.6325 145.498 70.0449C150.197 71.4572 153.234 75.1692 152.297 78.2813Z" stroke="white" stroke-width="3" stroke-miterlimit="10"/>
<path d="M165.108 177.169C161.196 180.143 156.434 180.456 154.472 177.869C154.265 177.599 154.093 177.305 153.959 176.994C152.897 174.357 154.522 170.495 158.009 167.845C161.496 165.195 165.92 164.62 168.12 166.595C168.12 166.595 168.432 166.933 168.607 167.107C170.607 169.695 169.02 174.194 165.108 177.169Z" stroke="white" stroke-width="3" stroke-miterlimit="10"/>
<path d="M183.893 127.375C183.578 127.419 183.258 127.419 182.943 127.375C180.081 127.175 177.331 123.95 176.556 119.614C175.781 115.277 177.281 111.115 180.006 110.04L180.718 109.827C183.905 109.252 187.205 112.702 188.08 117.539C188.955 122.376 187.092 126.838 183.893 127.375Z" stroke="white" stroke-width="3" stroke-miterlimit="10"/>
<path d="M136.899 34.6244C136.903 34.8452 136.87 35.0651 136.799 35.2743C136.199 37.524 132.487 39.2613 128.05 39.2613C123.613 39.2613 119.914 37.5615 119.301 35.3368C119.216 35.109 119.174 34.8675 119.176 34.6244C119.176 32.1247 123.163 30 128.075 30C132.987 30 136.899 32.0747 136.899 34.6244Z" stroke="white" stroke-width="3" stroke-miterlimit="10"/>
<path d="M141.748 61.321C140.315 58.4634 139.124 55.4909 138.186 52.4346" stroke="white" stroke-width="3" stroke-miterlimit="10" stroke-linecap="round"/>
<path d="M136.899 34.6245C136.899 34.8369 136.824 35.0619 136.799 35.2744" stroke="white" stroke-width="3" stroke-miterlimit="10" stroke-linecap="round"/>
<path d="M119.251 35.3369C119.251 35.0994 119.176 34.8619 119.126 34.6245" stroke="white" stroke-width="3" stroke-miterlimit="10" stroke-linecap="round"/>
<path d="M117.551 52.4722C116.632 55.4859 115.53 58.4409 114.252 61.321" stroke="white" stroke-width="3" stroke-miterlimit="10" stroke-linecap="round"/>
<path d="M152.297 78.2813C152.209 78.5856 152.079 78.8759 151.91 79.1437V79.1437C150.447 81.6434 146.323 82.6057 142.098 81.3184C137.874 80.0311 134.824 76.794 135.149 73.8194C135.149 73.5944 135.249 73.3569 135.287 73.107C136.224 69.9949 140.798 68.6325 145.498 70.0449C150.197 71.4572 153.234 75.1692 152.297 78.2813Z" stroke="white" stroke-width="3" stroke-miterlimit="10"/>
<path d="M152.897 93.0794C150.222 87.7301 150.21 83.1557 151.897 79.1562" stroke="white" stroke-width="3" stroke-miterlimit="10" stroke-linecap="round"/>
<path d="M152.297 78.2813C152.16 78.5688 152.022 78.8562 151.91 79.1437" stroke="white" stroke-width="3" stroke-miterlimit="10" stroke-linecap="round"/>
<path d="M135.274 73.1321C135.274 73.382 135.187 73.6195 135.137 73.8445" stroke="white" stroke-width="3" stroke-miterlimit="10" stroke-linecap="round"/>
<path d="M126.575 85.143C131.787 81.706 134.074 79.2188 135.137 73.8945" stroke="white" stroke-width="3" stroke-miterlimit="10" stroke-linecap="round"/>
<path d="M183.893 127.375C183.578 127.419 183.258 127.419 182.943 127.375C180.081 127.175 177.331 123.95 176.556 119.614C175.781 115.277 177.281 111.115 180.006 110.04L180.718 109.827C183.905 109.252 187.205 112.702 188.08 117.539C188.955 122.376 187.092 126.838 183.893 127.375Z" stroke="white" stroke-width="3" stroke-miterlimit="10"/>
<path d="M170.97 134.662C174.532 129.85 178.581 127.775 182.918 127.463" stroke="white" stroke-width="3" stroke-miterlimit="10" stroke-linecap="round"/>
<path d="M183.893 127.375C183.568 127.375 183.255 127.375 182.943 127.375" stroke="white" stroke-width="3" stroke-miterlimit="10" stroke-linecap="round"/>
<path d="M180.743 109.877L180.031 110.09" stroke="white" stroke-width="3" stroke-miterlimit="10" stroke-linecap="round"/>
<path d="M166.095 107.603C171.495 110.677 174.769 111.615 179.981 110.102" stroke="white" stroke-width="3" stroke-miterlimit="10" stroke-linecap="round"/>
<path d="M165.108 177.169C161.196 180.143 156.434 180.456 154.472 177.869C154.265 177.599 154.093 177.305 153.959 176.994C152.897 174.357 154.522 170.495 158.009 167.845C161.496 165.195 165.92 164.62 168.12 166.595C168.12 166.595 168.432 166.933 168.607 167.107C170.607 169.695 169.02 174.194 165.108 177.169Z" stroke="white" stroke-width="3" stroke-miterlimit="10"/>
<path d="M142.136 169.657C147.997 170.632 151.697 173.282 153.947 176.956" stroke="white" stroke-width="3" stroke-miterlimit="10" stroke-linecap="round"/>
<path d="M154.472 177.869C154.309 177.569 154.147 177.281 153.959 176.994" stroke="white" stroke-width="3" stroke-miterlimit="10" stroke-linecap="round"/>
<path d="M168.632 167.107C168.457 166.932 168.295 166.77 168.145 166.595" stroke="white" stroke-width="3" stroke-miterlimit="10" stroke-linecap="round"/>
<path d="M168.107 166.558C164.358 162.596 163.745 159.246 164.02 153.022" stroke="white" stroke-width="3" stroke-miterlimit="10" stroke-linecap="round"/>
<path d="M112.427 181.593C112.427 181.593 112.352 181.806 112.314 181.906C112.277 182.006 112.227 182.143 112.189 182.268C110.777 185.193 106.04 185.83 101.616 183.693C97.1913 181.556 94.7541 177.444 96.1665 174.532C96.3539 174.257 96.5414 173.982 96.7039 173.707C98.5412 171.507 102.753 171.207 106.703 173.107C110.652 175.006 113.189 178.743 112.427 181.593Z" stroke="white" stroke-width="3" stroke-miterlimit="10"/>
<path d="M96.1542 174.569C98.8663 170.732 99.8162 165.97 97.8665 159.846" stroke="white" stroke-width="3" stroke-miterlimit="10" stroke-linecap="round"/>
<path d="M112.177 182.368C112.177 182.243 112.252 182.131 112.302 182.006C112.329 181.906 112.366 181.809 112.415 181.718" stroke="white" stroke-width="3" stroke-miterlimit="10" stroke-linecap="round"/>
<path d="M112.427 181.593C114.277 176.481 116.951 174.382 122.626 171.794" stroke="white" stroke-width="3" stroke-miterlimit="10" stroke-linecap="round"/>
<path d="M78.6687 129.875C78.7686 134.349 76.6564 138.111 73.8193 138.786L73.0194 138.899C69.7823 138.974 67.0576 135.049 66.9452 130.15C66.8327 125.25 69.4448 121.201 72.6319 121.126C72.9476 121.115 73.2632 121.148 73.5693 121.226V121.226C76.369 121.851 78.5812 125.463 78.6687 129.875Z" stroke="white" stroke-width="3" stroke-miterlimit="10"/>
<path d="M73.5569 121.226C77.8938 121.588 82.2308 120.164 86.4927 115.964" stroke="white" stroke-width="3" stroke-miterlimit="10" stroke-linecap="round"/>
<path d="M73.5319 121.213C73.2177 121.199 72.9047 121.165 72.5945 121.113" stroke="white" stroke-width="3" stroke-miterlimit="10" stroke-linecap="round"/>
<path d="M73.782 138.786L72.9821 138.899" stroke="white" stroke-width="3" stroke-miterlimit="10" stroke-linecap="round"/>
<path d="M73.8195 138.786C79.1688 138.136 82.2434 139.586 87.0928 143.448" stroke="white" stroke-width="3" stroke-miterlimit="10" stroke-linecap="round"/>
<path d="M94.4043 92.4795C91.0922 95.5416 86.9052 96.429 84.4805 94.7167L83.8931 94.2043C81.6934 91.8171 82.8307 87.1802 86.3928 83.8556C89.9548 80.531 94.7167 79.7561 96.9164 82.1433C97.1522 82.3922 97.3501 82.6743 97.5039 82.9807C98.8912 85.4929 97.6288 89.5049 94.4043 92.4795Z" stroke="white" stroke-width="3" stroke-miterlimit="10"/>
<path d="M96.954 82.1308C99.5287 86.0553 103.603 88.6924 110.015 89.1299" stroke="white" stroke-width="3" stroke-miterlimit="10" stroke-linecap="round"/>
<path d="M84.468 94.7042L83.8806 94.1918" stroke="white" stroke-width="3" stroke-miterlimit="10" stroke-linecap="round"/>
<path d="M84.4806 94.7167C88.5426 98.2912 89.48 101.566 89.8174 107.778" stroke="white" stroke-width="3" stroke-miterlimit="10" stroke-linecap="round"/>
<path d="M165.442 53.1538C165.915 52.0123 163.837 50.0676 160.801 48.8102C157.766 47.5528 154.922 47.4589 154.449 48.6004C153.976 49.742 156.054 51.6867 159.089 52.944C162.125 54.2014 164.969 54.2953 165.442 53.1538Z" stroke="white" stroke-width="3" stroke-miterlimit="10"/>
<path d="M165.495 53.1595C164.19 55.2047 163.207 57.439 162.583 59.7837" stroke="white" stroke-width="3" stroke-miterlimit="10" stroke-linecap="round"/>
<path d="M151.609 55.5092C152.955 53.3948 153.915 51.0591 154.447 48.6101" stroke="white" stroke-width="3" stroke-miterlimit="10" stroke-linecap="round"/>
<path d="M207.38 101.589C208.522 101.116 208.428 98.2719 207.172 95.2361C205.915 92.2003 203.97 90.1224 202.829 90.5951C201.687 91.0677 201.781 93.9119 203.037 96.9476C204.294 99.9834 206.239 102.061 207.38 101.589Z" stroke="white" stroke-width="3" stroke-miterlimit="10"/>
<path d="M207.402 101.566C205.035 102.089 202.763 102.975 200.666 104.191" stroke="white" stroke-width="3" stroke-miterlimit="10" stroke-linecap="round"/>
<path d="M195.954 93.4419C198.401 92.8975 200.733 91.9242 202.84 90.5673" stroke="white" stroke-width="3" stroke-miterlimit="10" stroke-linecap="round"/>
<path d="M207.178 160.8C208.436 157.764 208.53 154.92 207.389 154.447C206.247 153.974 204.302 156.051 203.044 159.087C201.787 162.122 201.692 164.966 202.834 165.439C203.975 165.912 205.92 163.835 207.178 160.8Z" stroke="white" stroke-width="3" stroke-miterlimit="10"/>
<path d="M202.828 165.458C200.783 164.152 198.549 163.17 196.204 162.546" stroke="white" stroke-width="3" stroke-miterlimit="10" stroke-linecap="round"/>
<path d="M200.491 151.622C202.605 152.967 204.941 153.928 207.39 154.459" stroke="white" stroke-width="3" stroke-miterlimit="10" stroke-linecap="round"/>
<path d="M160.76 207.233C163.796 205.977 165.874 204.033 165.401 202.891C164.929 201.75 162.085 201.842 159.049 203.099C156.013 204.355 153.934 206.299 154.407 207.441C154.879 208.582 157.724 208.49 160.76 207.233Z" stroke="white" stroke-width="3" stroke-miterlimit="10"/>
<path d="M154.422 207.365C153.902 204.999 153.021 202.726 151.809 200.628" stroke="white" stroke-width="3" stroke-miterlimit="10" stroke-linecap="round"/>
<path d="M162.546 195.966C163.09 198.413 164.063 200.745 165.42 202.853" stroke="white" stroke-width="3" stroke-miterlimit="10" stroke-linecap="round"/>
<path d="M101.517 207.373C101.99 206.231 99.9136 204.286 96.8785 203.027C93.8434 201.769 90.9993 201.674 90.5261 202.815C90.0528 203.957 92.1297 205.902 95.1648 207.161C98.1999 208.419 101.044 208.514 101.517 207.373Z" stroke="white" stroke-width="3" stroke-miterlimit="10"/>
<path d="M90.5048 202.828C91.8104 200.783 92.7927 198.549 93.4169 196.204" stroke="white" stroke-width="3" stroke-miterlimit="10" stroke-linecap="round"/>
<path d="M104.365 200.478C103.02 202.593 102.06 204.928 101.528 207.377" stroke="white" stroke-width="3" stroke-miterlimit="10" stroke-linecap="round"/>
<path d="M53.1196 165.43C54.2614 164.958 54.169 162.114 52.9132 159.077C51.6574 156.041 49.7138 153.963 48.572 154.435C47.4302 154.907 47.5227 157.751 48.7784 160.788C50.0342 163.824 51.9778 165.902 53.1196 165.43Z" stroke="white" stroke-width="3" stroke-miterlimit="10"/>
<path d="M48.5977 154.409C50.964 153.89 53.2362 153.009 55.3343 151.797" stroke="white" stroke-width="3" stroke-miterlimit="10" stroke-linecap="round"/>
<path d="M60.0337 162.533C57.5866 163.078 55.2551 164.051 53.1471 165.408" stroke="white" stroke-width="3" stroke-miterlimit="10" stroke-linecap="round"/>
<path d="M52.9675 96.8747C54.2265 93.8398 54.3219 90.9957 53.1806 90.5222C52.0394 90.0488 50.0936 92.1253 48.8346 95.1602C47.5756 98.1951 47.4803 101.039 48.6215 101.513C49.7628 101.986 51.7086 99.9096 52.9675 96.8747Z" stroke="white" stroke-width="3" stroke-miterlimit="10"/>
<path d="M53.1846 90.5173C55.2258 91.8218 57.4559 92.804 59.7962 93.4294" stroke="white" stroke-width="3" stroke-miterlimit="10" stroke-linecap="round"/>
<path d="M55.5092 104.353C53.3948 103.008 51.0591 102.047 48.6101 101.516" stroke="white" stroke-width="3" stroke-miterlimit="10" stroke-linecap="round"/>
<path d="M96.9647 52.9041C100.001 51.6484 102.079 49.7047 101.607 48.563C101.135 47.4212 98.2908 47.5136 95.2545 48.7694C92.2183 50.0252 90.1398 51.9688 90.612 53.1106C91.0843 54.2523 93.9284 54.1599 96.9647 52.9041Z" stroke="white" stroke-width="3" stroke-miterlimit="10"/>
<path d="M101.603 48.6351C102.123 51.0015 103.004 53.2737 104.216 55.3718" stroke="white" stroke-width="3" stroke-miterlimit="10" stroke-linecap="round"/>
<path d="M93.4668 60.0336C92.9224 57.5865 91.9491 55.255 90.5922 53.147" stroke="white" stroke-width="3" stroke-miterlimit="10" stroke-linecap="round"/>
<path d="M200.316 68.2576L199.691 68.7201C197.641 69.7699 193.867 68.3701 190.742 65.2455C187.617 62.1209 186.255 58.4589 187.23 56.3841C187.351 56.1216 187.521 55.8842 187.73 55.6842C189.542 53.8719 193.817 55.2218 197.291 58.6963C200.766 62.1709 202.116 66.4578 200.316 68.2576Z" stroke="white" stroke-width="3" stroke-miterlimit="10"/>
<path d="M188.63 81.7809C187.133 84.5848 185.878 87.5118 184.88 90.5298" stroke="white" stroke-width="3" stroke-miterlimit="10" stroke-linecap="round"/>
<path d="M200.316 68.2576L199.691 68.7201" stroke="white" stroke-width="3" stroke-miterlimit="10" stroke-linecap="round"/>
<path d="M187.73 55.6843C187.567 55.9217 187.405 56.1592 187.23 56.3842" stroke="white" stroke-width="3" stroke-miterlimit="10" stroke-linecap="round"/>
<path d="M174.032 67.2202C171.266 68.6923 168.416 69.9986 165.495 71.1322" stroke="white" stroke-width="3" stroke-miterlimit="10" stroke-linecap="round"/>
<path d="M226 127.988C226 132.899 223.925 136.886 221.376 136.886C221.155 136.891 220.935 136.857 220.726 136.786C218.476 136.186 216.739 132.474 216.739 128.038C216.739 123.601 218.426 119.926 220.638 119.289C220.866 119.204 221.108 119.161 221.351 119.164C223.925 119.089 226 123.076 226 127.988Z" stroke="white" stroke-width="3" stroke-miterlimit="10"/>
<path d="M203.565 138.174C200.509 139.111 197.537 140.303 194.679 141.736" stroke="white" stroke-width="3" stroke-miterlimit="10" stroke-linecap="round"/>
<path d="M221.375 136.886L220.726 136.786" stroke="white" stroke-width="3" stroke-miterlimit="10" stroke-linecap="round"/>
<path d="M220.638 119.214L221.351 119.089" stroke="white" stroke-width="3" stroke-miterlimit="10" stroke-linecap="round"/>
<path d="M203.528 117.539C200.514 116.619 197.559 115.517 194.679 114.239" stroke="white" stroke-width="3" stroke-miterlimit="10" stroke-linecap="round"/>
<path d="M197.304 197.291C193.841 200.766 189.554 202.116 187.742 200.303L187.28 199.678C186.23 197.629 187.63 193.867 190.754 190.742C193.879 187.617 197.653 186.218 199.703 187.267C199.903 187.429 200.112 187.579 200.328 187.717C202.128 189.53 200.778 193.817 197.304 197.291Z" stroke="white" stroke-width="3" stroke-miterlimit="10"/>
<path d="M174.244 188.617C171.435 187.13 168.509 185.876 165.495 184.868" stroke="white" stroke-width="3" stroke-miterlimit="10" stroke-linecap="round"/>
<path d="M187.742 200.303L187.28 199.678" stroke="white" stroke-width="3" stroke-miterlimit="10" stroke-linecap="round"/>
<path d="M200.328 187.717C200.112 187.579 199.903 187.429 199.703 187.268" stroke="white" stroke-width="3" stroke-miterlimit="10" stroke-linecap="round"/>
<path d="M188.792 174.007C187.318 171.225 186.012 168.358 184.88 165.42" stroke="white" stroke-width="3" stroke-miterlimit="10" stroke-linecap="round"/>
<path d="M136.911 221.363C136.911 223.863 132.937 226 128.025 226C123.113 226 119.126 223.925 119.126 221.376L119.239 220.688C119.864 218.451 123.551 216.739 127.987 216.739C132.424 216.739 136.049 218.413 136.736 220.601C136.838 220.843 136.897 221.101 136.911 221.363V221.363Z" stroke="white" stroke-width="3" stroke-miterlimit="10"/>
<path d="M117.839 203.615C116.897 200.563 115.701 197.595 114.264 194.742" stroke="white" stroke-width="3" stroke-miterlimit="10" stroke-linecap="round"/>
<path d="M119.251 220.688L119.139 221.376" stroke="white" stroke-width="3" stroke-miterlimit="10" stroke-linecap="round"/>
<path d="M136.911 221.363C136.911 221.113 136.824 220.851 136.786 220.601" stroke="white" stroke-width="3" stroke-miterlimit="10" stroke-linecap="round"/>
<path d="M141.748 194.679C140.47 197.559 139.368 200.514 138.449 203.528" stroke="white" stroke-width="3" stroke-miterlimit="10" stroke-linecap="round"/>
<path d="M68.7826 199.628C68.6537 199.886 68.485 200.123 68.2826 200.328C66.4829 202.14 62.1959 200.791 58.7214 197.316C55.2468 193.842 53.897 189.567 55.6967 187.755L56.3216 187.292C58.3714 186.243 62.1459 187.642 65.2705 190.767C68.3951 193.892 69.7574 197.554 68.7826 199.628Z" stroke="white" stroke-width="3" stroke-miterlimit="10"/>
<path d="M71.1323 165.445C70.1311 168.462 68.8768 171.389 67.3828 174.194" stroke="white" stroke-width="3" stroke-miterlimit="10" stroke-linecap="round"/>
<path d="M56.3217 187.292L55.6968 187.755" stroke="white" stroke-width="3" stroke-miterlimit="10" stroke-linecap="round"/>
<path d="M68.7825 199.628C68.6075 199.853 68.4451 200.091 68.2826 200.328" stroke="white" stroke-width="3" stroke-miterlimit="10" stroke-linecap="round"/>
<path d="M90.5797 184.868C87.642 185.999 84.7747 187.305 81.9933 188.78" stroke="white" stroke-width="3" stroke-miterlimit="10" stroke-linecap="round"/>
<path d="M39.2613 128.025C39.2613 132.474 37.5615 136.174 35.3368 136.774C35.1133 136.859 34.876 136.901 34.6369 136.899C32.1372 136.899 30 132.924 30 128.013C30 123.101 32.0747 119.114 34.6244 119.114L35.3118 119.226C37.5615 119.876 39.2613 123.626 39.2613 128.025Z" stroke="white" stroke-width="3" stroke-miterlimit="10"/>
<path d="M61.3084 114.277C58.4551 115.71 55.4868 116.901 52.4346 117.839" stroke="white" stroke-width="3" stroke-miterlimit="10" stroke-linecap="round"/>
<path d="M34.6244 119.139L35.3118 119.251" stroke="white" stroke-width="3" stroke-miterlimit="10" stroke-linecap="round"/>
<path d="M35.3369 136.799L34.637 136.924" stroke="white" stroke-width="3" stroke-miterlimit="10" stroke-linecap="round"/>
<path d="M61.321 141.773C58.4409 140.495 55.4859 139.393 52.4722 138.474" stroke="white" stroke-width="3" stroke-miterlimit="10" stroke-linecap="round"/>
<path d="M65.233 65.2705C62.1459 68.3576 58.4339 69.77 56.3591 68.7951C56.0966 68.6737 55.8592 68.5041 55.6592 68.2952C53.8595 66.4829 55.2093 62.2084 58.6713 58.7339C62.1334 55.2593 66.4329 53.897 68.2451 55.7093C68.3826 55.8967 68.5076 56.0842 68.6576 56.2717C69.7824 58.3089 68.3826 62.1209 65.233 65.2705Z" stroke="white" stroke-width="3" stroke-miterlimit="10"/>
<path d="M90.5047 71.1323C87.4887 70.1294 84.5621 68.8752 81.7559 67.3828" stroke="white" stroke-width="3" stroke-miterlimit="10" stroke-linecap="round"/>
<path d="M68.6576 56.2717C68.5076 56.0842 68.3826 55.8967 68.2451 55.7092" stroke="white" stroke-width="3" stroke-miterlimit="10" stroke-linecap="round"/>
<path d="M56.3592 68.7951C56.1342 68.6201 55.8968 68.4576 55.6593 68.2951" stroke="white" stroke-width="3" stroke-miterlimit="10" stroke-linecap="round"/>
<path d="M71.1072 90.5923C69.9758 87.6546 68.6695 84.7874 67.1952 82.0059" stroke="white" stroke-width="3" stroke-miterlimit="10" stroke-linecap="round"/>
<path d="M128.625 139.249C134.837 139.249 139.873 134.212 139.873 128C139.873 121.788 134.837 116.751 128.625 116.751C122.412 116.751 117.376 121.788 117.376 128C117.376 134.212 122.412 139.249 128.625 139.249Z" stroke="white" stroke-width="3" stroke-miterlimit="10" stroke-linecap="round"/>
</g>
</svg>
